<mxfile host="app.diagrams.net" modified="2023-02-03T03:14:23.615Z" agent="5.0 (X11; Linux x86_64) AppleWebKit/537.36 (KHTML, like Gecko) Chrome/108.0.0.0 Safari/537.36" etag="vGfwll6Qt5tTn2Wq4QOH" version="20.8.15" type="github">
  <diagram id="QirQOxqdsBDgFj3gGUnx" name="Page-1">
    <mxGraphModel dx="2212" dy="1907" grid="1" gridSize="10" guides="1" tooltips="1" connect="1" arrows="1" fold="1" page="1" pageScale="1" pageWidth="850" pageHeight="1100" math="0" shadow="0">
      <root>
        <mxCell id="0" />
        <mxCell id="1" parent="0" />
        <mxCell id="ImQqx0ltVzmmWUaQApum-51" value="" style="rounded=0;whiteSpace=wrap;html=1;fontColor=default;" parent="1" vertex="1">
          <mxGeometry x="180" y="100" width="660" height="550" as="geometry" />
        </mxCell>
        <mxCell id="02onX3YyNPy_yh-qRUFS-19" value="Customer" style="shape=umlActor;verticalLabelPosition=bottom;verticalAlign=top;html=1;outlineConnect=0;fontSize=10;" parent="1" vertex="1">
          <mxGeometry x="-200" y="300" width="30" height="60" as="geometry" />
        </mxCell>
        <mxCell id="02onX3YyNPy_yh-qRUFS-50" value="transaction" style="rounded=1;whiteSpace=wrap;html=1;fontSize=10;fillColor=#b0e3e6;strokeColor=#0e8088;" parent="1" vertex="1">
          <mxGeometry x="210" y="360" width="120" height="80" as="geometry" />
        </mxCell>
        <mxCell id="02onX3YyNPy_yh-qRUFS-51" value="backend" style="rounded=1;whiteSpace=wrap;html=1;fontSize=10;fillColor=#f5f5f5;gradientColor=#b3b3b3;strokeColor=#666666;" parent="1" vertex="1">
          <mxGeometry x="450" y="10" width="100" height="50" as="geometry" />
        </mxCell>
        <mxCell id="02onX3YyNPy_yh-qRUFS-52" value="sweeping" style="rounded=1;whiteSpace=wrap;html=1;fontSize=10;fillColor=#e1d5e7;strokeColor=#9673a6;" parent="1" vertex="1">
          <mxGeometry x="680" y="360" width="120" height="80" as="geometry" />
        </mxCell>
        <mxCell id="02onX3YyNPy_yh-qRUFS-53" value="customer info" style="rounded=1;whiteSpace=wrap;html=1;fontSize=10;fillColor=#fff2cc;gradientColor=#ffd966;strokeColor=#d6b656;" parent="1" vertex="1">
          <mxGeometry x="210" y="220" width="120" height="80" as="geometry" />
        </mxCell>
        <mxCell id="02onX3YyNPy_yh-qRUFS-54" value="balance&lt;br&gt;(flexible saving)" style="rounded=1;whiteSpace=wrap;html=1;fontSize=10;fillColor=#fad9d5;strokeColor=#ae4132;" parent="1" vertex="1">
          <mxGeometry x="440" y="360" width="120" height="80" as="geometry" />
        </mxCell>
        <mxCell id="02onX3YyNPy_yh-qRUFS-55" value="interest" style="rounded=1;whiteSpace=wrap;html=1;fontSize=10;fillColor=#d5e8d4;gradientColor=#97d077;strokeColor=#82b366;" parent="1" vertex="1">
          <mxGeometry x="680" y="220" width="120" height="80" as="geometry" />
        </mxCell>
        <mxCell id="ImQqx0ltVzmmWUaQApum-5" value="" style="edgeStyle=elbowEdgeStyle;elbow=vertical;endArrow=classic;html=1;curved=0;rounded=0;endSize=8;startSize=8;entryX=0.5;entryY=1;entryDx=0;entryDy=0;fillColor=#e51400;strokeColor=#B20000;exitX=1;exitY=0.75;exitDx=0;exitDy=0;" parent="1" target="02onX3YyNPy_yh-qRUFS-50" edge="1" source="jaPn64TZXsZsPoWDlisM-8">
          <mxGeometry width="50" height="50" relative="1" as="geometry">
            <mxPoint x="70" y="450" as="sourcePoint" />
            <mxPoint x="310" y="480" as="targetPoint" />
            <Array as="points">
              <mxPoint x="180" y="500" />
              <mxPoint x="190" y="520" />
            </Array>
          </mxGeometry>
        </mxCell>
        <mxCell id="ImQqx0ltVzmmWUaQApum-6" value="deposit" style="edgeLabel;html=1;align=center;verticalAlign=middle;resizable=0;points=[];" parent="ImQqx0ltVzmmWUaQApum-5" vertex="1" connectable="0">
          <mxGeometry x="-0.1693" y="-2" relative="1" as="geometry">
            <mxPoint x="1" y="-3" as="offset" />
          </mxGeometry>
        </mxCell>
        <mxCell id="ImQqx0ltVzmmWUaQApum-7" value="" style="endArrow=classic;html=1;rounded=0;entryX=0;entryY=0.5;entryDx=0;entryDy=0;exitX=1;exitY=0.5;exitDx=0;exitDy=0;fillColor=#f8cecc;strokeColor=#b85450;" parent="1" source="02onX3YyNPy_yh-qRUFS-50" target="02onX3YyNPy_yh-qRUFS-54" edge="1">
          <mxGeometry width="50" height="50" relative="1" as="geometry">
            <mxPoint x="260" y="380" as="sourcePoint" />
            <mxPoint x="310" y="330" as="targetPoint" />
          </mxGeometry>
        </mxCell>
        <mxCell id="ImQqx0ltVzmmWUaQApum-10" value="decrease" style="edgeLabel;html=1;align=center;verticalAlign=middle;resizable=0;points=[];" parent="ImQqx0ltVzmmWUaQApum-7" vertex="1" connectable="0">
          <mxGeometry x="-0.2262" relative="1" as="geometry">
            <mxPoint x="7" as="offset" />
          </mxGeometry>
        </mxCell>
        <mxCell id="ImQqx0ltVzmmWUaQApum-9" value="job management" style="rounded=1;whiteSpace=wrap;html=1;" parent="1" vertex="1">
          <mxGeometry x="590" y="30" width="80" height="40" as="geometry" />
        </mxCell>
        <mxCell id="ImQqx0ltVzmmWUaQApum-11" value="Ops" style="shape=umlActor;verticalLabelPosition=bottom;verticalAlign=top;html=1;outlineConnect=0;fontSize=10;" parent="1" vertex="1">
          <mxGeometry x="470" y="-150" width="30" height="60" as="geometry" />
        </mxCell>
        <mxCell id="ImQqx0ltVzmmWUaQApum-12" value="" style="edgeStyle=elbowEdgeStyle;elbow=vertical;endArrow=classic;html=1;curved=0;rounded=0;endSize=8;startSize=8;exitX=0.75;exitY=1;exitDx=0;exitDy=0;entryX=0.004;entryY=0.273;entryDx=0;entryDy=0;fillColor=#e1d5e7;strokeColor=#9673a6;entryPerimeter=0;" parent="1" source="ImQqx0ltVzmmWUaQApum-9" target="02onX3YyNPy_yh-qRUFS-55" edge="1">
          <mxGeometry width="50" height="50" relative="1" as="geometry">
            <mxPoint x="610" y="240" as="sourcePoint" />
            <mxPoint x="660" y="190" as="targetPoint" />
            <Array as="points">
              <mxPoint x="670" y="242" />
            </Array>
          </mxGeometry>
        </mxCell>
        <mxCell id="ImQqx0ltVzmmWUaQApum-13" value="daily interst" style="edgeLabel;html=1;align=center;verticalAlign=middle;resizable=0;points=[];" parent="ImQqx0ltVzmmWUaQApum-12" vertex="1" connectable="0">
          <mxGeometry x="-0.1081" y="3" relative="1" as="geometry">
            <mxPoint x="-3" y="20" as="offset" />
          </mxGeometry>
        </mxCell>
        <mxCell id="ImQqx0ltVzmmWUaQApum-15" value="" style="edgeStyle=elbowEdgeStyle;elbow=vertical;endArrow=classic;html=1;curved=0;rounded=0;endSize=8;startSize=8;entryX=0.5;entryY=0;entryDx=0;entryDy=0;fillColor=#d80073;strokeColor=#A50040;" parent="1" target="02onX3YyNPy_yh-qRUFS-51" edge="1">
          <mxGeometry width="50" height="50" relative="1" as="geometry">
            <mxPoint x="500" y="-70" as="sourcePoint" />
            <mxPoint x="420" y="320" as="targetPoint" />
            <Array as="points">
              <mxPoint x="460" y="-30" />
            </Array>
          </mxGeometry>
        </mxCell>
        <mxCell id="ImQqx0ltVzmmWUaQApum-45" value="&lt;div style=&quot;text-align: left;&quot;&gt;- config product&lt;/div&gt;&lt;div style=&quot;text-align: left;&quot;&gt;- config interest&lt;/div&gt;&lt;div style=&quot;text-align: left;&quot;&gt;- view report&lt;/div&gt;" style="edgeLabel;html=1;align=center;verticalAlign=middle;resizable=0;points=[];fontColor=default;" parent="ImQqx0ltVzmmWUaQApum-15" vertex="1" connectable="0">
          <mxGeometry x="-0.146" y="-1" relative="1" as="geometry">
            <mxPoint x="41" y="-4" as="offset" />
          </mxGeometry>
        </mxCell>
        <mxCell id="ImQqx0ltVzmmWUaQApum-19" value="" style="edgeStyle=elbowEdgeStyle;elbow=vertical;endArrow=classic;html=1;curved=0;rounded=0;endSize=8;startSize=8;exitX=0.25;exitY=1;exitDx=0;exitDy=0;fillColor=#e3c800;strokeColor=#B09500;" parent="1" source="ImQqx0ltVzmmWUaQApum-9" edge="1">
          <mxGeometry width="50" height="50" relative="1" as="geometry">
            <mxPoint x="510" y="310" as="sourcePoint" />
            <mxPoint x="680" y="420" as="targetPoint" />
            <Array as="points">
              <mxPoint x="630" y="420" />
              <mxPoint x="660" y="330" />
            </Array>
          </mxGeometry>
        </mxCell>
        <mxCell id="ImQqx0ltVzmmWUaQApum-20" value="daily sweeping" style="edgeLabel;html=1;align=center;verticalAlign=middle;resizable=0;points=[];fontColor=default;" parent="ImQqx0ltVzmmWUaQApum-19" vertex="1" connectable="0">
          <mxGeometry x="0.1676" y="-1" relative="1" as="geometry">
            <mxPoint x="1" y="-105" as="offset" />
          </mxGeometry>
        </mxCell>
        <mxCell id="ImQqx0ltVzmmWUaQApum-21" value="" style="edgeStyle=segmentEdgeStyle;endArrow=classic;html=1;curved=0;rounded=0;endSize=8;startSize=8;fillColor=#b1ddf0;strokeColor=#10739e;entryX=0;entryY=0.5;entryDx=0;entryDy=0;exitX=0.8;exitY=0.8;exitDx=0;exitDy=0;exitPerimeter=0;" parent="1" target="02onX3YyNPy_yh-qRUFS-50" edge="1" source="jaPn64TZXsZsPoWDlisM-1">
          <mxGeometry width="50" height="50" relative="1" as="geometry">
            <mxPoint x="100" y="400" as="sourcePoint" />
            <mxPoint x="210" y="407" as="targetPoint" />
            <Array as="points">
              <mxPoint x="16" y="400" />
            </Array>
          </mxGeometry>
        </mxCell>
        <mxCell id="ImQqx0ltVzmmWUaQApum-22" value="withdraw" style="edgeLabel;html=1;align=center;verticalAlign=middle;resizable=0;points=[];" parent="ImQqx0ltVzmmWUaQApum-21" vertex="1" connectable="0">
          <mxGeometry x="-0.1602" y="1" relative="1" as="geometry">
            <mxPoint x="37" y="1" as="offset" />
          </mxGeometry>
        </mxCell>
        <mxCell id="ImQqx0ltVzmmWUaQApum-23" value="" style="endArrow=classic;html=1;rounded=0;entryX=0.25;entryY=1;entryDx=0;entryDy=0;exitX=0.25;exitY=0;exitDx=0;exitDy=0;fillColor=#b1ddf0;strokeColor=#10739e;" parent="1" edge="1">
          <mxGeometry width="50" height="50" relative="1" as="geometry">
            <mxPoint x="228" y="360" as="sourcePoint" />
            <mxPoint x="228" y="300" as="targetPoint" />
          </mxGeometry>
        </mxCell>
        <mxCell id="ImQqx0ltVzmmWUaQApum-24" value="check limit" style="edgeLabel;html=1;align=center;verticalAlign=middle;resizable=0;points=[];" parent="ImQqx0ltVzmmWUaQApum-23" vertex="1" connectable="0">
          <mxGeometry x="-0.3287" relative="1" as="geometry">
            <mxPoint x="-10" as="offset" />
          </mxGeometry>
        </mxCell>
        <mxCell id="ImQqx0ltVzmmWUaQApum-27" value="" style="edgeStyle=elbowEdgeStyle;elbow=horizontal;endArrow=classic;html=1;curved=0;rounded=0;endSize=8;startSize=8;entryX=0.75;entryY=1;entryDx=0;entryDy=0;exitX=0.5;exitY=1;exitDx=0;exitDy=0;fillColor=#e3c800;strokeColor=#B09500;" parent="1" source="02onX3YyNPy_yh-qRUFS-52" target="02onX3YyNPy_yh-qRUFS-50" edge="1">
          <mxGeometry width="50" height="50" relative="1" as="geometry">
            <mxPoint x="400" y="370" as="sourcePoint" />
            <mxPoint x="450" y="320" as="targetPoint" />
            <Array as="points">
              <mxPoint x="620" y="470" />
            </Array>
          </mxGeometry>
        </mxCell>
        <mxCell id="ImQqx0ltVzmmWUaQApum-29" value="" style="edgeStyle=elbowEdgeStyle;elbow=vertical;endArrow=classic;html=1;curved=0;rounded=0;endSize=8;startSize=8;fontColor=default;entryX=1;entryY=0.25;entryDx=0;entryDy=0;exitX=1;exitY=0.5;exitDx=0;exitDy=0;fillColor=#d5e8d4;gradientColor=#97d077;strokeColor=#82b366;" parent="1" source="ImQqx0ltVzmmWUaQApum-9" target="02onX3YyNPy_yh-qRUFS-55" edge="1">
          <mxGeometry width="50" height="50" relative="1" as="geometry">
            <mxPoint x="440" y="240" as="sourcePoint" />
            <mxPoint x="490" y="190" as="targetPoint" />
            <Array as="points">
              <mxPoint x="820" y="50" />
              <mxPoint x="750" y="120" />
            </Array>
          </mxGeometry>
        </mxCell>
        <mxCell id="ImQqx0ltVzmmWUaQApum-30" value="periodically interest" style="edgeLabel;html=1;align=center;verticalAlign=middle;resizable=0;points=[];fontColor=default;" parent="ImQqx0ltVzmmWUaQApum-29" vertex="1" connectable="0">
          <mxGeometry x="0.0449" relative="1" as="geometry">
            <mxPoint y="-8" as="offset" />
          </mxGeometry>
        </mxCell>
        <mxCell id="ImQqx0ltVzmmWUaQApum-31" value="" style="edgeStyle=orthogonalEdgeStyle;elbow=vertical;endArrow=classic;html=1;rounded=0;endSize=8;startSize=8;fontColor=default;exitX=1;exitY=0.75;exitDx=0;exitDy=0;fillColor=#d5e8d4;gradientColor=#97d077;strokeColor=#82b366;entryX=1;entryY=0.5;entryDx=0;entryDy=0;" parent="1" source="ImQqx0ltVzmmWUaQApum-35" target="ImQqx0ltVzmmWUaQApum-79" edge="1">
          <mxGeometry width="50" height="50" relative="1" as="geometry">
            <mxPoint x="510" y="300" as="sourcePoint" />
            <mxPoint x="283" y="440" as="targetPoint" />
            <Array as="points">
              <mxPoint x="820" y="343" />
              <mxPoint x="820" y="520" />
            </Array>
          </mxGeometry>
        </mxCell>
        <mxCell id="ImQqx0ltVzmmWUaQApum-82" value="settlement/rotation" style="edgeLabel;html=1;align=center;verticalAlign=middle;resizable=0;points=[];fontColor=default;" parent="ImQqx0ltVzmmWUaQApum-31" vertex="1" connectable="0">
          <mxGeometry x="0.562" relative="1" as="geometry">
            <mxPoint as="offset" />
          </mxGeometry>
        </mxCell>
        <mxCell id="ImQqx0ltVzmmWUaQApum-32" value="" style="edgeStyle=elbowEdgeStyle;elbow=vertical;endArrow=classic;html=1;curved=0;rounded=0;endSize=8;startSize=8;fontColor=default;exitX=1;exitY=0.75;exitDx=0;exitDy=0;entryX=0;entryY=0.75;entryDx=0;entryDy=0;fillColor=#f8cecc;strokeColor=#b85450;" parent="1" source="02onX3YyNPy_yh-qRUFS-50" target="02onX3YyNPy_yh-qRUFS-54" edge="1">
          <mxGeometry width="50" height="50" relative="1" as="geometry">
            <mxPoint x="550" y="420" as="sourcePoint" />
            <mxPoint x="600" y="370" as="targetPoint" />
          </mxGeometry>
        </mxCell>
        <mxCell id="ImQqx0ltVzmmWUaQApum-33" value="hold/unhold" style="edgeLabel;html=1;align=center;verticalAlign=middle;resizable=0;points=[];fontColor=default;" parent="ImQqx0ltVzmmWUaQApum-32" vertex="1" connectable="0">
          <mxGeometry x="-0.0861" y="1" relative="1" as="geometry">
            <mxPoint as="offset" />
          </mxGeometry>
        </mxCell>
        <mxCell id="ImQqx0ltVzmmWUaQApum-34" value="flexible intr" style="rounded=1;whiteSpace=wrap;html=1;fontSize=10;fillColor=#d5e8d4;gradientColor=#97d077;strokeColor=#82b366;" parent="1" vertex="1">
          <mxGeometry x="650" y="320" width="70" height="30" as="geometry" />
        </mxCell>
        <mxCell id="ImQqx0ltVzmmWUaQApum-35" value="fixed intr" style="rounded=1;whiteSpace=wrap;html=1;fontSize=10;fillColor=#d5e8d4;gradientColor=#97d077;strokeColor=#82b366;" parent="1" vertex="1">
          <mxGeometry x="730" y="320" width="70" height="30" as="geometry" />
        </mxCell>
        <mxCell id="ImQqx0ltVzmmWUaQApum-36" value="" style="edgeStyle=elbowEdgeStyle;elbow=horizontal;endArrow=classic;html=1;curved=0;rounded=0;endSize=8;startSize=8;fontColor=default;fillColor=#d5e8d4;gradientColor=#97d077;strokeColor=#82b366;entryX=1;entryY=0.25;entryDx=0;entryDy=0;exitX=1;exitY=0.5;exitDx=0;exitDy=0;" parent="1" source="02onX3YyNPy_yh-qRUFS-55" target="ImQqx0ltVzmmWUaQApum-35" edge="1">
          <mxGeometry width="50" height="50" relative="1" as="geometry">
            <mxPoint x="580" y="330" as="sourcePoint" />
            <mxPoint x="630" y="280" as="targetPoint" />
            <Array as="points">
              <mxPoint x="820" y="310" />
            </Array>
          </mxGeometry>
        </mxCell>
        <mxCell id="ImQqx0ltVzmmWUaQApum-37" value="" style="edgeStyle=elbowEdgeStyle;elbow=vertical;endArrow=classic;html=1;curved=0;rounded=0;endSize=8;startSize=8;fontColor=default;entryX=0.25;entryY=0;entryDx=0;entryDy=0;fillColor=#e1d5e7;strokeColor=#9673a6;" parent="1" target="ImQqx0ltVzmmWUaQApum-34" edge="1">
          <mxGeometry width="50" height="50" relative="1" as="geometry">
            <mxPoint x="680" y="280" as="sourcePoint" />
            <mxPoint x="650" y="280" as="targetPoint" />
            <Array as="points">
              <mxPoint x="670" y="280" />
            </Array>
          </mxGeometry>
        </mxCell>
        <mxCell id="ImQqx0ltVzmmWUaQApum-40" value="" style="edgeStyle=elbowEdgeStyle;elbow=vertical;endArrow=classic;html=1;curved=0;rounded=0;endSize=8;startSize=8;fontColor=default;exitX=0.75;exitY=1;exitDx=0;exitDy=0;entryX=0;entryY=0.5;entryDx=0;entryDy=0;" parent="1" source="02onX3YyNPy_yh-qRUFS-51" target="02onX3YyNPy_yh-qRUFS-55" edge="1">
          <mxGeometry width="50" height="50" relative="1" as="geometry">
            <mxPoint x="530" y="230" as="sourcePoint" />
            <mxPoint x="580" y="180" as="targetPoint" />
            <Array as="points">
              <mxPoint x="530" y="260" />
              <mxPoint x="610" y="240" />
            </Array>
          </mxGeometry>
        </mxCell>
        <mxCell id="ImQqx0ltVzmmWUaQApum-44" value="config intr" style="edgeLabel;html=1;align=center;verticalAlign=middle;resizable=0;points=[];fontColor=default;" parent="ImQqx0ltVzmmWUaQApum-40" vertex="1" connectable="0">
          <mxGeometry x="0.2867" relative="1" as="geometry">
            <mxPoint x="17" as="offset" />
          </mxGeometry>
        </mxCell>
        <mxCell id="ImQqx0ltVzmmWUaQApum-48" value="" style="edgeStyle=elbowEdgeStyle;elbow=vertical;endArrow=classic;html=1;curved=0;rounded=0;endSize=8;startSize=8;fontColor=default;entryX=0;entryY=0.5;entryDx=0;entryDy=0;exitX=0.625;exitY=0.2;exitDx=0;exitDy=0;exitPerimeter=0;" parent="1" target="02onX3YyNPy_yh-qRUFS-53" edge="1" source="jaPn64TZXsZsPoWDlisM-1">
          <mxGeometry width="50" height="50" relative="1" as="geometry">
            <mxPoint x="70" y="350" as="sourcePoint" />
            <mxPoint x="170" y="280" as="targetPoint" />
            <Array as="points">
              <mxPoint x="140" y="260" />
            </Array>
          </mxGeometry>
        </mxCell>
        <mxCell id="ImQqx0ltVzmmWUaQApum-50" value="update preference" style="edgeLabel;html=1;align=center;verticalAlign=middle;resizable=0;points=[];fontColor=default;" parent="ImQqx0ltVzmmWUaQApum-48" vertex="1" connectable="0">
          <mxGeometry x="0.2711" y="-1" relative="1" as="geometry">
            <mxPoint x="-32" y="-1" as="offset" />
          </mxGeometry>
        </mxCell>
        <mxCell id="ImQqx0ltVzmmWUaQApum-54" value="" style="edgeStyle=elbowEdgeStyle;elbow=vertical;endArrow=classic;html=1;curved=0;rounded=0;endSize=8;startSize=8;fontColor=default;exitX=0;exitY=0.25;exitDx=0;exitDy=0;entryX=0.5;entryY=0;entryDx=0;entryDy=0;fillColor=#e1d5e7;strokeColor=#9673a6;" parent="1" source="ImQqx0ltVzmmWUaQApum-34" target="02onX3YyNPy_yh-qRUFS-50" edge="1">
          <mxGeometry width="50" height="50" relative="1" as="geometry">
            <mxPoint x="530" y="360" as="sourcePoint" />
            <mxPoint x="580" y="310" as="targetPoint" />
            <Array as="points">
              <mxPoint x="460" y="328" />
            </Array>
          </mxGeometry>
        </mxCell>
        <mxCell id="ImQqx0ltVzmmWUaQApum-55" value="monthly interest" style="edgeLabel;html=1;align=center;verticalAlign=middle;resizable=0;points=[];fontColor=default;" parent="ImQqx0ltVzmmWUaQApum-54" vertex="1" connectable="0">
          <mxGeometry x="0.0054" y="2" relative="1" as="geometry">
            <mxPoint y="-3" as="offset" />
          </mxGeometry>
        </mxCell>
        <mxCell id="ImQqx0ltVzmmWUaQApum-58" value="" style="endArrow=classic;html=1;rounded=0;fontColor=default;elbow=vertical;exitX=1;exitY=0.25;exitDx=0;exitDy=0;entryX=0;entryY=0.25;entryDx=0;entryDy=0;fillColor=#f8cecc;strokeColor=#b85450;" parent="1" source="02onX3YyNPy_yh-qRUFS-50" target="02onX3YyNPy_yh-qRUFS-54" edge="1">
          <mxGeometry width="50" height="50" relative="1" as="geometry">
            <mxPoint x="510" y="320" as="sourcePoint" />
            <mxPoint x="560" y="270" as="targetPoint" />
          </mxGeometry>
        </mxCell>
        <mxCell id="ImQqx0ltVzmmWUaQApum-59" value="increase" style="edgeLabel;html=1;align=center;verticalAlign=middle;resizable=0;points=[];fontColor=default;" parent="ImQqx0ltVzmmWUaQApum-58" vertex="1" connectable="0">
          <mxGeometry x="-0.1481" y="2" relative="1" as="geometry">
            <mxPoint x="3" as="offset" />
          </mxGeometry>
        </mxCell>
        <mxCell id="ImQqx0ltVzmmWUaQApum-60" value="" style="endArrow=classic;html=1;rounded=0;fontColor=default;elbow=vertical;exitX=0.917;exitY=1;exitDx=0;exitDy=0;entryX=0.063;entryY=1.001;entryDx=0;entryDy=0;exitPerimeter=0;entryPerimeter=0;fillColor=#e3c800;strokeColor=#B09500;" parent="1" source="02onX3YyNPy_yh-qRUFS-50" target="02onX3YyNPy_yh-qRUFS-54" edge="1">
          <mxGeometry width="50" height="50" relative="1" as="geometry">
            <mxPoint x="390" y="270" as="sourcePoint" />
            <mxPoint x="440" y="220" as="targetPoint" />
          </mxGeometry>
        </mxCell>
        <mxCell id="ImQqx0ltVzmmWUaQApum-62" value="" style="edgeStyle=elbowEdgeStyle;elbow=vertical;endArrow=classic;html=1;curved=0;rounded=0;endSize=8;startSize=8;strokeColor=default;fontColor=default;entryX=0.5;entryY=1;entryDx=0;entryDy=0;exitX=0.55;exitY=0.95;exitDx=0;exitDy=0;exitPerimeter=0;" parent="1" target="02onX3YyNPy_yh-qRUFS-54" edge="1" source="jaPn64TZXsZsPoWDlisM-1">
          <mxGeometry width="50" height="50" relative="1" as="geometry">
            <mxPoint x="40" y="380" as="sourcePoint" />
            <mxPoint x="510" y="480" as="targetPoint" />
            <Array as="points">
              <mxPoint x="240" y="520" />
              <mxPoint x="270" y="530" />
            </Array>
          </mxGeometry>
        </mxCell>
        <mxCell id="ImQqx0ltVzmmWUaQApum-63" value="view balance/balance fluctuation" style="edgeLabel;html=1;align=center;verticalAlign=middle;resizable=0;points=[];fontColor=default;" parent="ImQqx0ltVzmmWUaQApum-62" vertex="1" connectable="0">
          <mxGeometry x="-0.1075" y="-3" relative="1" as="geometry">
            <mxPoint x="178" y="-3" as="offset" />
          </mxGeometry>
        </mxCell>
        <mxCell id="ImQqx0ltVzmmWUaQApum-64" value="" style="endArrow=classic;html=1;rounded=0;strokeColor=default;fontColor=default;elbow=vertical;entryX=0;entryY=0.25;entryDx=0;entryDy=0;exitX=0.96;exitY=0.7;exitDx=0;exitDy=0;exitPerimeter=0;" parent="1" target="02onX3YyNPy_yh-qRUFS-50" edge="1" source="jaPn64TZXsZsPoWDlisM-1">
          <mxGeometry width="50" height="50" relative="1" as="geometry">
            <mxPoint x="100" y="380" as="sourcePoint" />
            <mxPoint x="510" y="490" as="targetPoint" />
          </mxGeometry>
        </mxCell>
        <mxCell id="ImQqx0ltVzmmWUaQApum-65" value="view statement" style="edgeLabel;html=1;align=center;verticalAlign=middle;resizable=0;points=[];fontColor=default;" parent="ImQqx0ltVzmmWUaQApum-64" vertex="1" connectable="0">
          <mxGeometry x="-0.1527" y="1" relative="1" as="geometry">
            <mxPoint as="offset" />
          </mxGeometry>
        </mxCell>
        <mxCell id="ImQqx0ltVzmmWUaQApum-71" value="" style="edgeStyle=elbowEdgeStyle;elbow=horizontal;endArrow=classic;html=1;curved=0;rounded=0;endSize=8;startSize=8;strokeColor=#9673a6;fontColor=default;entryX=0;entryY=0.75;entryDx=0;entryDy=0;exitX=1;exitY=0.25;exitDx=0;exitDy=0;fillColor=#e1d5e7;startArrow=classic;startFill=1;" parent="1" source="02onX3YyNPy_yh-qRUFS-54" target="ImQqx0ltVzmmWUaQApum-34" edge="1">
          <mxGeometry width="50" height="50" relative="1" as="geometry">
            <mxPoint x="490" y="250" as="sourcePoint" />
            <mxPoint x="540" y="200" as="targetPoint" />
            <Array as="points">
              <mxPoint x="630" y="350" />
            </Array>
          </mxGeometry>
        </mxCell>
        <mxCell id="ImQqx0ltVzmmWUaQApum-72" value="get balance" style="edgeLabel;html=1;align=center;verticalAlign=middle;resizable=0;points=[];fontColor=default;" parent="ImQqx0ltVzmmWUaQApum-71" vertex="1" connectable="0">
          <mxGeometry x="-0.4614" y="-1" relative="1" as="geometry">
            <mxPoint x="26" as="offset" />
          </mxGeometry>
        </mxCell>
        <mxCell id="ImQqx0ltVzmmWUaQApum-79" value="stable saving&lt;br&gt;(fixed)" style="rounded=1;whiteSpace=wrap;html=1;fontSize=10;fillColor=#ffff88;strokeColor=#36393d;" parent="1" vertex="1">
          <mxGeometry x="570" y="480" width="120" height="80" as="geometry" />
        </mxCell>
        <mxCell id="ImQqx0ltVzmmWUaQApum-80" value="" style="edgeStyle=elbowEdgeStyle;elbow=vertical;endArrow=classic;html=1;curved=0;rounded=0;endSize=8;startSize=8;strokeColor=#6F0000;fontColor=default;entryX=0;entryY=0.5;entryDx=0;entryDy=0;exitX=0.75;exitY=1;exitDx=0;exitDy=0;fillColor=#a20025;" parent="1" source="02onX3YyNPy_yh-qRUFS-54" target="ImQqx0ltVzmmWUaQApum-79" edge="1">
          <mxGeometry width="50" height="50" relative="1" as="geometry">
            <mxPoint x="480" y="470" as="sourcePoint" />
            <mxPoint x="530" y="420" as="targetPoint" />
            <Array as="points">
              <mxPoint x="550" y="520" />
            </Array>
          </mxGeometry>
        </mxCell>
        <mxCell id="ImQqx0ltVzmmWUaQApum-92" value="create stable&lt;br&gt;saving" style="edgeLabel;html=1;align=center;verticalAlign=middle;resizable=0;points=[];fontColor=default;" parent="ImQqx0ltVzmmWUaQApum-80" vertex="1" connectable="0">
          <mxGeometry x="-0.3119" y="1" relative="1" as="geometry">
            <mxPoint x="3" y="10" as="offset" />
          </mxGeometry>
        </mxCell>
        <mxCell id="ImQqx0ltVzmmWUaQApum-84" value="" style="edgeStyle=elbowEdgeStyle;elbow=vertical;endArrow=classic;html=1;curved=0;rounded=0;endSize=8;startSize=8;strokeColor=#82b366;fontColor=default;entryX=1;entryY=0.5;entryDx=0;entryDy=0;fillColor=#d5e8d4;" parent="1" target="aAvzafearKKZfVRR0bBZ-3" edge="1">
          <mxGeometry width="50" height="50" relative="1" as="geometry">
            <mxPoint x="600" y="560" as="sourcePoint" />
            <mxPoint x="580" y="300" as="targetPoint" />
            <Array as="points">
              <mxPoint x="520" y="590" />
            </Array>
          </mxGeometry>
        </mxCell>
        <mxCell id="ImQqx0ltVzmmWUaQApum-85" value="check hold for pledge" style="edgeLabel;html=1;align=center;verticalAlign=middle;resizable=0;points=[];fontColor=default;" parent="ImQqx0ltVzmmWUaQApum-84" vertex="1" connectable="0">
          <mxGeometry x="-0.26" y="1" relative="1" as="geometry">
            <mxPoint x="-24" y="-1" as="offset" />
          </mxGeometry>
        </mxCell>
        <mxCell id="ImQqx0ltVzmmWUaQApum-88" value="" style="endArrow=classic;html=1;rounded=0;strokeColor=#6F0000;fontColor=default;entryX=0.073;entryY=0.001;entryDx=0;entryDy=0;entryPerimeter=0;fillColor=#a20025;exitX=0.88;exitY=0.25;exitDx=0;exitDy=0;exitPerimeter=0;" parent="1" target="02onX3YyNPy_yh-qRUFS-50" edge="1" source="jaPn64TZXsZsPoWDlisM-1">
          <mxGeometry width="50" height="50" relative="1" as="geometry">
            <mxPoint x="100" y="360" as="sourcePoint" />
            <mxPoint x="320" y="340" as="targetPoint" />
          </mxGeometry>
        </mxCell>
        <mxCell id="ImQqx0ltVzmmWUaQApum-91" value="create stable saving" style="edgeLabel;html=1;align=center;verticalAlign=middle;resizable=0;points=[];fontColor=default;" parent="ImQqx0ltVzmmWUaQApum-88" vertex="1" connectable="0">
          <mxGeometry x="-0.3697" relative="1" as="geometry">
            <mxPoint x="20" y="1" as="offset" />
          </mxGeometry>
        </mxCell>
        <mxCell id="ImQqx0ltVzmmWUaQApum-93" value="" style="endArrow=classic;html=1;rounded=0;strokeColor=#6F0000;fontColor=default;entryX=0.25;entryY=1;entryDx=0;entryDy=0;exitX=0.25;exitY=0;exitDx=0;exitDy=0;fillColor=#a20025;" parent="1" edge="1">
          <mxGeometry width="50" height="50" relative="1" as="geometry">
            <mxPoint x="248" y="360" as="sourcePoint" />
            <mxPoint x="248" y="300" as="targetPoint" />
          </mxGeometry>
        </mxCell>
        <mxCell id="ImQqx0ltVzmmWUaQApum-94" value="&amp;nbsp;policy/contract" style="edgeLabel;html=1;align=center;verticalAlign=middle;resizable=0;points=[];fontColor=default;" parent="ImQqx0ltVzmmWUaQApum-93" vertex="1" connectable="0">
          <mxGeometry x="0.3778" relative="1" as="geometry">
            <mxPoint x="22" as="offset" />
          </mxGeometry>
        </mxCell>
        <mxCell id="ImQqx0ltVzmmWUaQApum-95" value="contract management" style="rounded=1;whiteSpace=wrap;html=1;fontSize=10;fillColor=#fff2cc;strokeColor=#d6b656;gradientColor=#ffd966;" parent="1" vertex="1">
          <mxGeometry x="355" y="270" width="70" height="30" as="geometry" />
        </mxCell>
        <mxCell id="ImQqx0ltVzmmWUaQApum-96" value="" style="endArrow=classic;html=1;rounded=0;strokeColor=#6F0000;fontColor=default;entryX=0;entryY=0.5;entryDx=0;entryDy=0;fillColor=#a20025;" parent="1" target="ImQqx0ltVzmmWUaQApum-95" edge="1">
          <mxGeometry width="50" height="50" relative="1" as="geometry">
            <mxPoint x="330" y="285" as="sourcePoint" />
            <mxPoint x="430" y="270" as="targetPoint" />
          </mxGeometry>
        </mxCell>
        <mxCell id="ImQqx0ltVzmmWUaQApum-97" value="transaction limit" style="rounded=1;whiteSpace=wrap;html=1;fontSize=10;fillColor=#fff2cc;strokeColor=#d6b656;gradientColor=#ffd966;" parent="1" vertex="1">
          <mxGeometry x="335" y="195" width="70" height="30" as="geometry" />
        </mxCell>
        <mxCell id="ImQqx0ltVzmmWUaQApum-98" value="" style="edgeStyle=elbowEdgeStyle;elbow=vertical;endArrow=classic;html=1;curved=0;rounded=0;endSize=8;startSize=8;strokeColor=#006EAF;fontColor=default;entryX=0;entryY=0.25;entryDx=0;entryDy=0;exitX=0.25;exitY=0;exitDx=0;exitDy=0;fillColor=#1ba1e2;" parent="1" source="02onX3YyNPy_yh-qRUFS-53" target="ImQqx0ltVzmmWUaQApum-97" edge="1">
          <mxGeometry width="50" height="50" relative="1" as="geometry">
            <mxPoint x="230" y="250" as="sourcePoint" />
            <mxPoint x="280" y="200" as="targetPoint" />
            <Array as="points">
              <mxPoint x="280" y="203" />
            </Array>
          </mxGeometry>
        </mxCell>
        <mxCell id="ImQqx0ltVzmmWUaQApum-99" value="check limit" style="edgeLabel;html=1;align=center;verticalAlign=middle;resizable=0;points=[];fontColor=default;" parent="ImQqx0ltVzmmWUaQApum-98" vertex="1" connectable="0">
          <mxGeometry x="0.0419" relative="1" as="geometry">
            <mxPoint as="offset" />
          </mxGeometry>
        </mxCell>
        <mxCell id="aAvzafearKKZfVRR0bBZ-3" value="pledge (margin)" style="rounded=1;whiteSpace=wrap;html=1;fontSize=10;fillColor=#eeeeee;strokeColor=#36393d;" parent="1" vertex="1">
          <mxGeometry x="305" y="550" width="120" height="80" as="geometry" />
        </mxCell>
        <mxCell id="aAvzafearKKZfVRR0bBZ-4" value="" style="edgeStyle=elbowEdgeStyle;elbow=vertical;endArrow=classic;html=1;curved=0;rounded=0;endSize=8;startSize=8;exitX=0.25;exitY=0;exitDx=0;exitDy=0;fillColor=#d5e8d4;strokeColor=#82b366;gradientColor=#97d077;" parent="1" source="ImQqx0ltVzmmWUaQApum-79" edge="1">
          <mxGeometry width="50" height="50" relative="1" as="geometry">
            <mxPoint x="520" y="510" as="sourcePoint" />
            <mxPoint x="560" y="420" as="targetPoint" />
            <Array as="points">
              <mxPoint x="570" y="420" />
            </Array>
          </mxGeometry>
        </mxCell>
        <mxCell id="aAvzafearKKZfVRR0bBZ-5" value="increase" style="edgeLabel;html=1;align=center;verticalAlign=middle;resizable=0;points=[];" parent="aAvzafearKKZfVRR0bBZ-4" vertex="1" connectable="0">
          <mxGeometry x="-0.1837" y="1" relative="1" as="geometry">
            <mxPoint as="offset" />
          </mxGeometry>
        </mxCell>
        <mxCell id="aAvzafearKKZfVRR0bBZ-6" value="" style="edgeStyle=elbowEdgeStyle;elbow=vertical;endArrow=classic;html=1;curved=0;rounded=0;endSize=8;startSize=8;entryX=0;entryY=0.5;entryDx=0;entryDy=0;fillColor=#1ba1e2;strokeColor=#006EAF;exitX=1;exitY=0.5;exitDx=0;exitDy=0;" parent="1" target="aAvzafearKKZfVRR0bBZ-3" edge="1" source="jaPn64TZXsZsPoWDlisM-10">
          <mxGeometry width="50" height="50" relative="1" as="geometry">
            <mxPoint x="90" y="440" as="sourcePoint" />
            <mxPoint x="420" y="420" as="targetPoint" />
            <Array as="points">
              <mxPoint x="190" y="590" />
            </Array>
          </mxGeometry>
        </mxCell>
        <mxCell id="aAvzafearKKZfVRR0bBZ-7" value="pledge" style="edgeLabel;html=1;align=center;verticalAlign=middle;resizable=0;points=[];" parent="aAvzafearKKZfVRR0bBZ-6" vertex="1" connectable="0">
          <mxGeometry x="0.1416" y="-1" relative="1" as="geometry">
            <mxPoint y="-1" as="offset" />
          </mxGeometry>
        </mxCell>
        <mxCell id="aAvzafearKKZfVRR0bBZ-8" value="" style="edgeStyle=elbowEdgeStyle;elbow=vertical;endArrow=classic;html=1;curved=0;rounded=0;endSize=8;startSize=8;exitX=1;exitY=0.75;exitDx=0;exitDy=0;entryX=0.5;entryY=1;entryDx=0;entryDy=0;fillColor=#1ba1e2;strokeColor=#006EAF;" parent="1" source="aAvzafearKKZfVRR0bBZ-3" target="ImQqx0ltVzmmWUaQApum-79" edge="1">
          <mxGeometry width="50" height="50" relative="1" as="geometry">
            <mxPoint x="370" y="530" as="sourcePoint" />
            <mxPoint x="420" y="480" as="targetPoint" />
            <Array as="points">
              <mxPoint x="430" y="610" />
            </Array>
          </mxGeometry>
        </mxCell>
        <mxCell id="aAvzafearKKZfVRR0bBZ-9" value="calculate/hold" style="edgeLabel;html=1;align=center;verticalAlign=middle;resizable=0;points=[];" parent="aAvzafearKKZfVRR0bBZ-8" vertex="1" connectable="0">
          <mxGeometry x="-0.4588" relative="1" as="geometry">
            <mxPoint x="36" as="offset" />
          </mxGeometry>
        </mxCell>
        <mxCell id="aAvzafearKKZfVRR0bBZ-17" value="product management" style="rounded=1;whiteSpace=wrap;html=1;fontSize=10;fillColor=#cce5ff;strokeColor=#36393d;" parent="1" vertex="1">
          <mxGeometry x="680" y="115" width="120" height="80" as="geometry" />
        </mxCell>
        <mxCell id="aAvzafearKKZfVRR0bBZ-18" value="" style="edgeStyle=elbowEdgeStyle;elbow=vertical;endArrow=classic;html=1;curved=0;rounded=0;endSize=8;startSize=8;exitX=0.25;exitY=1;exitDx=0;exitDy=0;fillColor=#d80073;strokeColor=#A50040;" parent="1" source="02onX3YyNPy_yh-qRUFS-51" edge="1">
          <mxGeometry width="50" height="50" relative="1" as="geometry">
            <mxPoint x="410" y="220" as="sourcePoint" />
            <mxPoint x="680" y="130" as="targetPoint" />
            <Array as="points">
              <mxPoint x="460" y="130" />
              <mxPoint x="480" y="140" />
            </Array>
          </mxGeometry>
        </mxCell>
        <mxCell id="aAvzafearKKZfVRR0bBZ-19" value="config product" style="edgeLabel;html=1;align=center;verticalAlign=middle;resizable=0;points=[];" parent="aAvzafearKKZfVRR0bBZ-18" vertex="1" connectable="0">
          <mxGeometry x="0.6988" relative="1" as="geometry">
            <mxPoint x="-169" y="-15" as="offset" />
          </mxGeometry>
        </mxCell>
        <mxCell id="jaPn64TZXsZsPoWDlisM-1" value="tcinvest" style="ellipse;shape=cloud;whiteSpace=wrap;html=1;fillColor=#d5e8d4;strokeColor=#82b366;" vertex="1" parent="1">
          <mxGeometry x="-60" y="280" width="120" height="80" as="geometry" />
        </mxCell>
        <mxCell id="jaPn64TZXsZsPoWDlisM-3" value="" style="endArrow=classic;html=1;rounded=0;entryX=0.07;entryY=0.4;entryDx=0;entryDy=0;entryPerimeter=0;" edge="1" parent="1" target="jaPn64TZXsZsPoWDlisM-1">
          <mxGeometry width="50" height="50" relative="1" as="geometry">
            <mxPoint x="-150" y="340" as="sourcePoint" />
            <mxPoint x="330" y="390" as="targetPoint" />
          </mxGeometry>
        </mxCell>
        <mxCell id="jaPn64TZXsZsPoWDlisM-15" value="view" style="edgeLabel;html=1;align=center;verticalAlign=middle;resizable=0;points=[];" vertex="1" connectable="0" parent="jaPn64TZXsZsPoWDlisM-3">
          <mxGeometry x="-0.1192" y="1" relative="1" as="geometry">
            <mxPoint as="offset" />
          </mxGeometry>
        </mxCell>
        <mxCell id="jaPn64TZXsZsPoWDlisM-4" value="trading services" style="rounded=1;whiteSpace=wrap;html=1;fontSize=10;fillColor=#fff2cc;strokeColor=#d6b656;" vertex="1" parent="1">
          <mxGeometry x="-110" y="390" width="90" height="60" as="geometry" />
        </mxCell>
        <mxCell id="jaPn64TZXsZsPoWDlisM-8" value="cash service" style="rounded=1;whiteSpace=wrap;html=1;fontSize=10;fillColor=#dae8fc;strokeColor=#6c8ebf;" vertex="1" parent="1">
          <mxGeometry x="-90" y="490" width="90" height="60" as="geometry" />
        </mxCell>
        <mxCell id="jaPn64TZXsZsPoWDlisM-10" value="margin" style="rounded=1;whiteSpace=wrap;html=1;fontSize=10;fillColor=#e1d5e7;strokeColor=#9673a6;" vertex="1" parent="1">
          <mxGeometry x="70" y="560" width="90" height="60" as="geometry" />
        </mxCell>
        <mxCell id="jaPn64TZXsZsPoWDlisM-12" value="" style="edgeStyle=elbowEdgeStyle;elbow=vertical;endArrow=classic;html=1;curved=0;rounded=0;endSize=8;startSize=8;fillColor=#f8cecc;strokeColor=#b85450;gradientColor=#ea6b66;" edge="1" parent="1">
          <mxGeometry width="50" height="50" relative="1" as="geometry">
            <mxPoint x="-180" y="385" as="sourcePoint" />
            <mxPoint x="-90" y="510" as="targetPoint" />
            <Array as="points">
              <mxPoint x="-130" y="510" />
            </Array>
          </mxGeometry>
        </mxCell>
        <mxCell id="jaPn64TZXsZsPoWDlisM-13" value="deposit" style="edgeLabel;html=1;align=center;verticalAlign=middle;resizable=0;points=[];" vertex="1" connectable="0" parent="jaPn64TZXsZsPoWDlisM-12">
          <mxGeometry x="0.1958" y="1" relative="1" as="geometry">
            <mxPoint x="47" y="1" as="offset" />
          </mxGeometry>
        </mxCell>
        <mxCell id="jaPn64TZXsZsPoWDlisM-16" value="" style="edgeStyle=elbowEdgeStyle;elbow=vertical;endArrow=classic;html=1;curved=0;rounded=0;endSize=8;startSize=8;entryX=0.25;entryY=1;entryDx=0;entryDy=0;exitX=0.75;exitY=0;exitDx=0;exitDy=0;fillColor=#dae8fc;gradientColor=#7ea6e0;strokeColor=#6c8ebf;" edge="1" parent="1" source="jaPn64TZXsZsPoWDlisM-8" target="02onX3YyNPy_yh-qRUFS-54">
          <mxGeometry width="50" height="50" relative="1" as="geometry">
            <mxPoint x="150" y="500" as="sourcePoint" />
            <mxPoint x="200" y="450" as="targetPoint" />
            <Array as="points">
              <mxPoint x="210" y="480" />
            </Array>
          </mxGeometry>
        </mxCell>
        <mxCell id="jaPn64TZXsZsPoWDlisM-17" value="purchase power" style="edgeLabel;html=1;align=center;verticalAlign=middle;resizable=0;points=[];" vertex="1" connectable="0" parent="jaPn64TZXsZsPoWDlisM-16">
          <mxGeometry x="-0.4262" y="-1" relative="1" as="geometry">
            <mxPoint as="offset" />
          </mxGeometry>
        </mxCell>
        <mxCell id="jaPn64TZXsZsPoWDlisM-20" value="purchase power" style="edgeLabel;html=1;align=center;verticalAlign=middle;resizable=0;points=[];" vertex="1" connectable="0" parent="jaPn64TZXsZsPoWDlisM-16">
          <mxGeometry x="0.4356" relative="1" as="geometry">
            <mxPoint as="offset" />
          </mxGeometry>
        </mxCell>
        <mxCell id="jaPn64TZXsZsPoWDlisM-18" value="" style="edgeStyle=elbowEdgeStyle;elbow=vertical;endArrow=classic;html=1;curved=0;rounded=0;endSize=8;startSize=8;entryX=0;entryY=0.25;entryDx=0;entryDy=0;fillColor=#dae8fc;gradientColor=#7ea6e0;strokeColor=#6c8ebf;" edge="1" parent="1" target="aAvzafearKKZfVRR0bBZ-3">
          <mxGeometry width="50" height="50" relative="1" as="geometry">
            <mxPoint x="210" y="480" as="sourcePoint" />
            <mxPoint x="260" y="380" as="targetPoint" />
            <Array as="points">
              <mxPoint x="260" y="570" />
            </Array>
          </mxGeometry>
        </mxCell>
        <mxCell id="jaPn64TZXsZsPoWDlisM-19" value="purchase power" style="edgeLabel;html=1;align=center;verticalAlign=middle;resizable=0;points=[];" vertex="1" connectable="0" parent="jaPn64TZXsZsPoWDlisM-18">
          <mxGeometry x="-0.3562" y="-2" relative="1" as="geometry">
            <mxPoint x="16" as="offset" />
          </mxGeometry>
        </mxCell>
        <mxCell id="jaPn64TZXsZsPoWDlisM-22" value="" style="edgeStyle=elbowEdgeStyle;elbow=vertical;endArrow=classic;html=1;curved=0;rounded=0;endSize=8;startSize=8;exitX=1;exitY=0.25;exitDx=0;exitDy=0;" edge="1" parent="1" source="02onX3YyNPy_yh-qRUFS-53" target="02onX3YyNPy_yh-qRUFS-54">
          <mxGeometry width="50" height="50" relative="1" as="geometry">
            <mxPoint x="350" y="190" as="sourcePoint" />
            <mxPoint x="400" y="140" as="targetPoint" />
            <Array as="points">
              <mxPoint x="410" y="240" />
            </Array>
          </mxGeometry>
        </mxCell>
        <mxCell id="jaPn64TZXsZsPoWDlisM-25" value="new sub-account &lt;br&gt;for new product" style="edgeLabel;html=1;align=center;verticalAlign=middle;resizable=0;points=[];" vertex="1" connectable="0" parent="jaPn64TZXsZsPoWDlisM-22">
          <mxGeometry x="-0.6593" y="-1" relative="1" as="geometry">
            <mxPoint x="31" y="-1" as="offset" />
          </mxGeometry>
        </mxCell>
        <mxCell id="jaPn64TZXsZsPoWDlisM-23" value="" style="edgeStyle=elbowEdgeStyle;elbow=vertical;endArrow=classic;html=1;curved=0;rounded=0;endSize=8;startSize=8;exitX=0.4;exitY=0.1;exitDx=0;exitDy=0;exitPerimeter=0;entryX=0;entryY=0.25;entryDx=0;entryDy=0;" edge="1" parent="1" source="jaPn64TZXsZsPoWDlisM-1" target="02onX3YyNPy_yh-qRUFS-53">
          <mxGeometry width="50" height="50" relative="1" as="geometry">
            <mxPoint x="320" y="230" as="sourcePoint" />
            <mxPoint x="370" y="180" as="targetPoint" />
            <Array as="points">
              <mxPoint x="100" y="240" />
            </Array>
          </mxGeometry>
        </mxCell>
        <mxCell id="jaPn64TZXsZsPoWDlisM-24" value="register new product" style="edgeLabel;html=1;align=center;verticalAlign=middle;resizable=0;points=[];" vertex="1" connectable="0" parent="jaPn64TZXsZsPoWDlisM-23">
          <mxGeometry x="-0.2974" relative="1" as="geometry">
            <mxPoint x="35" as="offset" />
          </mxGeometry>
        </mxCell>
        <mxCell id="jaPn64TZXsZsPoWDlisM-30" value="" style="endArrow=classic;html=1;rounded=0;exitX=0.471;exitY=0.993;exitDx=0;exitDy=0;entryX=0.25;entryY=0;entryDx=0;entryDy=0;exitPerimeter=0;fillColor=#dae8fc;strokeColor=#6c8ebf;" edge="1" parent="1" source="jaPn64TZXsZsPoWDlisM-4" target="jaPn64TZXsZsPoWDlisM-8">
          <mxGeometry width="50" height="50" relative="1" as="geometry">
            <mxPoint x="50" y="440" as="sourcePoint" />
            <mxPoint x="100" y="390" as="targetPoint" />
          </mxGeometry>
        </mxCell>
        <mxCell id="jaPn64TZXsZsPoWDlisM-36" value="trade" style="edgeLabel;html=1;align=center;verticalAlign=middle;resizable=0;points=[];" vertex="1" connectable="0" parent="jaPn64TZXsZsPoWDlisM-30">
          <mxGeometry x="-0.5196" relative="1" as="geometry">
            <mxPoint y="5" as="offset" />
          </mxGeometry>
        </mxCell>
        <mxCell id="jaPn64TZXsZsPoWDlisM-32" value="" style="endArrow=classic;html=1;rounded=0;exitX=0.13;exitY=0.77;exitDx=0;exitDy=0;exitPerimeter=0;entryX=0.5;entryY=0;entryDx=0;entryDy=0;fillColor=#dae8fc;strokeColor=#6c8ebf;" edge="1" parent="1" source="jaPn64TZXsZsPoWDlisM-1" target="jaPn64TZXsZsPoWDlisM-4">
          <mxGeometry width="50" height="50" relative="1" as="geometry">
            <mxPoint x="40" y="360" as="sourcePoint" />
            <mxPoint x="90" y="310" as="targetPoint" />
          </mxGeometry>
        </mxCell>
        <mxCell id="jaPn64TZXsZsPoWDlisM-33" value="trade" style="edgeLabel;html=1;align=center;verticalAlign=middle;resizable=0;points=[];" vertex="1" connectable="0" parent="jaPn64TZXsZsPoWDlisM-32">
          <mxGeometry x="-0.1252" y="-1" relative="1" as="geometry">
            <mxPoint as="offset" />
          </mxGeometry>
        </mxCell>
        <mxCell id="jaPn64TZXsZsPoWDlisM-34" value="" style="edgeStyle=elbowEdgeStyle;elbow=vertical;endArrow=classic;html=1;curved=0;rounded=0;endSize=8;startSize=8;exitX=0.444;exitY=0;exitDx=0;exitDy=0;exitPerimeter=0;entryX=0.25;entryY=1;entryDx=0;entryDy=0;fillColor=#dae8fc;strokeColor=#6c8ebf;" edge="1" parent="1" source="jaPn64TZXsZsPoWDlisM-8" target="02onX3YyNPy_yh-qRUFS-50">
          <mxGeometry width="50" height="50" relative="1" as="geometry">
            <mxPoint x="20" y="480" as="sourcePoint" />
            <mxPoint x="70" y="430" as="targetPoint" />
          </mxGeometry>
        </mxCell>
        <mxCell id="jaPn64TZXsZsPoWDlisM-35" value="hold/unhold IA" style="edgeLabel;html=1;align=center;verticalAlign=middle;resizable=0;points=[];" vertex="1" connectable="0" parent="jaPn64TZXsZsPoWDlisM-34">
          <mxGeometry x="-0.259" relative="1" as="geometry">
            <mxPoint x="5" as="offset" />
          </mxGeometry>
        </mxCell>
      </root>
    </mxGraphModel>
  </diagram>
</mxfile>
